<svg preserveAspectRatio="none" width="100%" height="100%" overflow="visible" style="display: block;" viewBox="0 0 152.4 8" fill="none" xmlns="http://www.w3.org/2000/svg">
<path id="path" d="M1.2 4C3.7 0.666667 6.2 0.666667 8.7 4C11.2 7.33333 13.7 7.33333 16.2 4C18.7 0.666667 21.2 0.666667 23.7 4C26.2 7.33333 28.7 7.33333 31.2 4C33.7 0.666667 36.2 0.666667 38.7 4C41.2 7.33333 43.7 7.33333 46.2 4C48.7 0.666667 51.2 0.666667 53.7 4C56.2 7.33333 58.7 7.33333 61.2 4C63.7 0.666667 66.2 0.666667 68.7 4C71.2 7.33333 73.7 7.33333 76.2 4C78.7 0.666667 81.2 0.666667 83.7 4C86.2 7.33333 88.7 7.33333 91.2 4C93.7 0.666667 96.2 0.666667 98.7 4C101.2 7.33333 103.7 7.33333 106.2 4C108.7 0.666667 111.2 0.666667 113.7 4C116.2 7.33333 118.7 7.33333 121.2 4C123.7 0.666667 126.2 0.666667 128.7 4C131.2 7.33333 133.7 7.33333 136.2 4C138.7 0.666667 141.2 0.666667 143.7 4C146.2 7.33333 148.7 7.33333 151.2 4" stroke="var(--stroke-0, #FF4D00)" stroke-width="3"/>
</svg>
