<svg preserveAspectRatio="none" width="100%" height="100%" overflow="visible" style="display: block;" viewBox="0 0 70.2858 7" fill="none" xmlns="http://www.w3.org/2000/svg">
<path id="path" d="M1.14291 3.5C3.40958 0.833333 5.67624 0.833333 7.94291 3.5C10.2096 6.16667 12.4762 6.16667 14.7429 3.5C17.0096 0.833333 19.2762 0.833333 21.5429 3.5C23.8096 6.16667 26.0762 6.16667 28.3429 3.5C30.6096 0.833333 32.8762 0.833333 35.1429 3.5C37.4096 6.16667 39.6762 6.16667 41.9429 3.5C44.2096 0.833333 46.4762 0.833333 48.7429 3.5C51.0096 6.16667 53.2762 6.16667 55.5429 3.5C57.8096 0.833333 60.0762 0.833333 62.3429 3.5C64.6096 6.16667 66.8762 6.16667 69.1429 3.5" stroke="var(--stroke-0, #FF4D00)" stroke-width="3"/>
</svg>
